<svg xmlns="http://www.w3.org/2000/svg" viewBox="0 0 20 20"><circle cx="10" cy="10" r="10" fill="#1969ff"/><path fill-rule="evenodd" d="M9.446 3.69L6.271 5.367c-.191.101-.29.245-.304.399h-.001v.021.035 8.329.043c.005.165.102.332.305.439l3.175 1.677a1.28 1.28 0 0 0 1.096 0l3.175-1.677c.204-.108.308-.273.312-.439h0v-.009-.002-8.367-.001-.049h-.003c-.018-.152-.121-.3-.309-.399L10.541 3.69a1.28 1.28 0 0 0-1.096 0zm-2.98 10.488l2.98 1.566c.179.096.366.189.548.19.167.001.33-.079.494-.16h0l.032-.015 3.008-1.594v-3.696l-2.987 1.578a1.28 1.28 0 0 1-1.096 0l-2.98-1.574v3.706zm0-4.809l2.841-1.501-2.841-1.501v3.002zm4.214-1.501l2.848-1.504v3.009L10.68 7.868zm-.372-3.736l3.175 1.677.007.004.005.003-.003.002-.009.005-3.174 1.677a.79.79 0 0 1-.629 0L6.504 5.822l-.007-.004-.005-.003.003-.002.01-.005 3.174-1.677a.79.79 0 0 1 .629 0zm0 4.105l3.175 1.677.007.004.005.003-.003.002-.009.005-3.174 1.677c-.02.011-.042.02-.065.028V8.209a.46.46 0 0 1 .065.028zm-.564-.028c-.023.008-.045.017-.065.028L6.504 9.913l-.01.005-.003.002.005.003.007.004 3.174 1.677c.02.011.041.02.065.028V8.209zm4.253-3.893l-.259.428.18.109.059.036.128.082.01.007c.169.115.262.21.324.334.075.15.112.362.112.685h.5v-.022c-.004-.737-.183-1.092-.666-1.417l-.152-.097-.034-.021-.202-.122zM6.262 15.263l-.259.428-.202-.122-.034-.021-.152-.097c-.482-.325-.662-.68-.666-1.417v-.022h.5c0 .323.038.535.112.685.062.124.154.219.324.334l.01.007.128.082.059.036.18.109z" fill="#fff"/></svg>