<svg xmlns="http://www.w3.org/2000/svg" viewBox="0 0 1190 289"><path d="M171.91 137.16H74.55L38.42 95.67h90.66zM58.82 252.25 16 200.39h67.25z" fill="#5f5fff"/><path d="M192.65 95.67H38.42l33.45-63.24h154.24zm-54.03 104.89H16.17l33.45-63.24h122.46z" fill="#40c9ff"/><path d="M421 226.99h-49.55l-30.88-63.91h-14.36v63.91H280.5V53.69h72.53c43.08 0 58.4 23.22 58.4 49.55 0 25.61-11.49 40.21-28 48.83L421 226.99zm-83.77-96.94c13.64 0 26.81-4.07 26.81-22.5 0-12.45-6.94-19.39-23.22-19.39h-14.6v41.89h11.01zm145.29 96.94h-45.96V53.69h45.96v173.3zm74.69 0h-45.96V53.69h114.17v35.9H557.2v36.86h62.47v35.19H557.2v65.35zm133.32 0h-45.96V53.69h114.17v35.9h-68.22v36.86H753v35.19h-62.47v65.35zm133.33 0H777.9V53.69h45.96v173.3zm126.62-173.3 61.75 173.29H962.2l-12.69-37.34H897.1l-11.25 37.34h-47.63l56.01-173.29h56.25zm-27.77 42.13h-1.2L903.8 154.7h36.62l-17.71-58.88zm200.35 131.17-56.01-110.58v110.58h-41.65V53.69h53.38l55.05 111.78V53.69H1175v173.29h-51.94z" fill="#161616"/></svg>