<svg xmlns="http://www.w3.org/2000/svg" viewBox="0 0 401.6 356.84"><path d="M284.92 206.95c-11.29 0-22.19-.73-32.52-2.09V91.71c10.32-1.36 21.23-2.08 32.52-2.08 64.44 0 116.68 23.69 116.68 52.92v11.48c0 29.23-52.24 52.92-116.68 52.92zm0 59.08c-11.29 0-22.19-.73-32.52-2.08v-33.17c10.32 1.36 21.23 2.1 32.52 2.1 56.25 0 103.2-18.05 114.23-42.08 1.61 3.5 2.45 7.12 2.45 10.84v11.48c0 29.23-52.24 52.92-116.68 52.92zm-32.52 26.41v-2.58c10.32 1.36 21.23 2.1 32.52 2.1 56.25 0 103.2-18.05 114.23-42.08 1.61 3.5 2.45 7.12 2.45 10.84v11.48c0 29.23-52.24 52.92-116.68 52.92-12.89 0-25.28-.95-36.87-2.7 2.87-5.88 4.35-12.08 4.35-18.5v-11.48zM116.68 0c64.44 0 116.68 23.69 116.68 52.92V64.4c0 29.23-52.24 52.92-116.68 52.92S0 93.63 0 64.4V52.92C0 23.69 52.24 0 116.68 0zm0 143.25c56.25 0 103.2-18.05 114.23-42.08 1.61 3.5 2.45 7.12 2.45 10.84v11.48c0 29.23-52.24 52.92-116.68 52.92S0 152.71 0 123.48V112c0-3.72.85-7.34 2.45-10.84 11.03 24.03 57.98 42.08 114.23 42.08zm0 59.08c56.25 0 103.2-18.05 114.23-42.08 1.61 3.5 2.45 7.12 2.45 10.84v11.48c0 29.23-52.24 52.92-116.68 52.92S0 211.79 0 182.57v-11.48c0-3.72.85-7.34 2.45-10.84 11.03 24.03 57.98 42.08 114.23 42.08zm0 62.27c56.25 0 103.2-18.05 114.23-42.08 1.61 3.5 2.45 7.12 2.45 10.84v11.48c0 29.23-52.24 52.92-116.68 52.92S0 274.07 0 244.84v-11.48c0-3.71.85-7.34 2.45-10.84 11.03 24.03 57.98 42.08 114.23 42.08zm0 59.09c56.25 0 103.2-18.05 114.23-42.08 1.61 3.5 2.45 7.12 2.45 10.84v11.48c0 29.23-52.24 52.92-116.68 52.92S0 333.15 0 303.92v-11.48c0-3.71.85-7.34 2.45-10.84 11.03 24.03 57.98 42.08 114.23 42.08z"/></svg>