<svg xmlns="http://www.w3.org/2000/svg" viewBox="0 0 221 203.63"><style>.F,.D,.C,.K,.J,.A,.E,.G,.B,.H{isolation:isolate}</style><g fill-rule="evenodd"><path class="A" d="M54 0h15c12.31 5.57 21.64 14.56 28 26.98a137.83 137.83 0 0 0 29-.51C131.83 14.08 140.83 5.26 153 0h15c2.17.64 3.84 2 5 4.07 1.37 6.74 2.37 13.52 3 20.36-12.97-5.43-24.97-3.57-36 5.6-5.9 4.47-10.9 9.74-15 15.78V95.7H96V45.81c.44.07.77-.1 1-.51-7.1-9.38-15.77-16.85-26-22.4-6.58-1.57-13.25-1.91-20-1.02-1.58 1.11-3.24 1.96-5 2.55.95-7.15 2.12-14.28 3.5-21.38C50.91 1.75 52.41.73 54 0z" fill="#ffc93d" opacity=".99"/><g fill="#ffb82c"><path class="B" d="M96 45.82l-22 2.04c-9.85-4.69-19.19-10.46-28-17.31v-6.11a18.76 18.76 0 0 0 5-2.55c6.75-.89 13.42-.55 20 1.02 10.23 5.55 18.9 13.02 26 22.4-.23.41-.56.58-1 .51z"/><path class="C" d="m176,24.44c1.14,1.99,1.14,4.02,0,6.11-8.5,8.23-18.5,13.49-30,15.78.92.28,1.58.79,2,1.53-5.31-.61-10.65-.95-16-1.02-2.11-.99-4.44-1.33-7-1.02,4.1-6.05,9.1-11.31,15-15.78,11.03-9.17,23.03-11.03,36-5.6Z"/></g><path class="D" d="M46 30.54c8.81 6.85 18.15 12.62 28 17.31-14.34.17-28.67 0-43-.51a115.76 115.76 0 0 1-18-2.55c5.02-2.16 10.02-4.54 15-7.13a221.81 221.81 0 0 0-8-11.71 346.14 346.14 0 0 1 26 4.58z" fill="#ffc83e" opacity=".98"/><path class="E" d="m209,44.8c-20.22,2.7-40.55,3.71-61,3.05-.42-.73-1.08-1.24-2-1.53,11.5-2.29,21.5-7.55,30-15.78,8.66-1.87,17.33-3.39,26-4.58-2.47,4.04-5.14,7.95-8,11.71,4.98,2.59,9.98,4.96,15,7.13Z" opacity=".98" fill="#ffc93e"/><path d="M13 44.8c5.92 1.32 11.92 2.16 18 2.55 14.33.51 28.66.68 43 .51l22-2.04v48.87H26a173.09 173.09 0 0 1-26-1.02V46.84c4.03-1.89 8.36-2.57 13-2.04zm196 0c4.1-.28 8.1.07 12 1.06v49.6a167.96 167.96 0 0 1-26 1.06h-69v-49.6h6c5.35.07 10.69.42 16 1.06a357.29 357.29 0 0 0 61-3.17z" fill="#ff505c" class="F"/><path class="G" d="m26,94.69h70v108.94H26c-1.33-36.31-1.33-72.63,0-108.94Z" fill="#fe6173" opacity=".99"/><path class="H" d="m125,45.82c2.56-.31,4.89.03,7,1.02h-6v156.79h-1V45.82Z" fill="#ff505c"/><path class="K J" d="M125 95.7h69.99c1.35 35.97 1.35 71.95 0 107.92H125V95.7z" opacity=".99" fill="#fe6173"/><path d="M96 95.7h29v107.92H96V95.7z" fill="#ffb82c"/><path d="M126 94.69l-1 .11V45.82l1 1.01" fill="#ff505c"/></g></svg>