<svg xmlns="http://www.w3.org/2000/svg" viewBox="60 60 1011.3 922.1" style="enable-background:new 0 0 1131.3 1042.1" xml:space="preserve"><style>.st4{fill:#fff}</style><path class="st4" d="M239.6 795v16.6c0 7.4-3.8 11.1-11.5 11.1-3.8 0-6.7-.9-8.5-2.7-1.8-1.8-2.7-4.6-2.7-8.3V795h3.5v16.1c0 5.4 2.6 8.1 7.9 8.1 2.8 0 4.8-.7 6-2.1 1.2-1.4 1.8-3.6 1.8-6.8V795h3.5zm32 0v26.7H267l-15.1-22v22h-3.5V795h4.7l15.1 22v-22h3.4zm12.4 0v23.4h11.3v3.3h-14.8V795h3.5zm31.9 0v3.3h-11.2v7.9h11v3.3h-11v8.7h11.5v3.4h-15.1V795h14.8zm20-.1 10.2 26.8h-3.9l-2.6-7.1h-11.9l-2.6 7.1h-3.9l10.2-26.8h4.5zm2.5 16.7-4.8-14-4.9 14h9.7zm31.2-10.3h-3.8c-.5-2.6-2.2-4-5.2-4-1.5 0-2.7.4-3.7 1.1-.9.7-1.4 1.7-1.4 2.9 0 1.6 1.5 3.1 4.4 4.3l3.8 1.6c2.4 1 4 2.1 4.9 3.1.9 1.1 1.4 2.5 1.4 4.3 0 2.5-.9 4.4-2.7 5.9-1.8 1.4-4.2 2.1-7.3 2.1-5.6 0-8.8-2.4-9.6-7.3h4.1l.1.3c.5 2.5 2.4 3.8 5.7 3.8 1.7 0 3.1-.4 4.1-1.2 1.1-.8 1.6-1.8 1.6-3.1 0-1.7-1.5-3.2-4.4-4.5l-3.4-1.4c-2.5-1-4.2-2.1-5.2-3.3-1-1.1-1.5-2.6-1.5-4.4 0-4.9 3-7.3 8.9-7.3 5.4 0 8.4 2.2 9 6.7l.2.4zm11.2-6.3v11.2h16.1V795h3.5v26.7h-3.5v-12.2h-16.1v12.2h-3.5V795h3.5zm43.1 0v3.3h-11.2v7.9h11v3.3h-11v8.7h11.5v3.4h-15.1V795h14.8zm7.8 0h9.5c3.1 0 5.5.3 7.3.9 1.7.6 3.2 1.7 4.4 3.2 1.8 2.3 2.7 5.2 2.7 8.8 0 3.8-1 7-3.1 9.5-2.3 2.8-5.9 4.1-10.9 4.1h-9.9V795zm3.5 3.3v20.1h5.9c7 0 10.5-3.4 10.5-10.3 0-3.5-.9-6-2.6-7.5-1.8-1.5-4.7-2.3-8.8-2.3h-5zM496 795v3.3h-9.5v23.4H483v-23.4h-9.6V795H496zm31.3 13.4c0 4.3-1.2 7.8-3.7 10.4-2.5 2.6-5.8 3.9-10 3.9-4 0-7.1-1.3-9.5-3.8s-3.6-5.9-3.6-10.1c0-4.4 1.3-7.9 3.8-10.5 2.5-2.6 5.8-4 9.9-4 4 0 7.2 1.3 9.5 3.8 2.5 2.6 3.6 6 3.6 10.3zm-3.9.2c0-7.4-3.1-11.1-9.3-11.1-3 0-5.3 1-7 2.9-1.7 2-2.5 4.7-2.5 8.1 0 3.5.8 6.2 2.4 8.1 1.6 1.9 3.9 2.9 6.9 2.9 3 0 5.4-1 7-2.9 1.7-1.9 2.5-4.6 2.5-8zm44.8-13.6-8.9 15.6-.4.7c-.1.3-.2.8-.2 1.4v9h-3.5v-9.1c0-.6-.2-1.4-.7-2.2l-8.8-15.4h4.2l7 13.2L564 795h4.2zm31.9 13.4c0 4.3-1.2 7.8-3.7 10.4-2.5 2.6-5.8 3.9-10 3.9-4 0-7.1-1.3-9.5-3.8-2.4-2.5-3.6-5.9-3.6-10.1 0-4.4 1.3-7.9 3.8-10.5 2.5-2.6 5.8-4 9.9-4 4 0 7.2 1.3 9.5 3.8 2.4 2.6 3.6 6 3.6 10.3zm-3.9.2c0-7.4-3.1-11.1-9.3-11.1-3 0-5.3 1-7 2.9-1.7 2-2.5 4.7-2.5 8.1 0 3.5.8 6.2 2.4 8.1 1.6 1.9 3.9 2.9 6.9 2.9 3 0 5.4-1 7-2.9 1.6-1.9 2.5-4.6 2.5-8zm34.1-13.6v16.6c0 7.4-3.8 11.1-11.5 11.1-3.8 0-6.7-.9-8.5-2.7s-2.7-4.6-2.7-8.3V795h3.5v16.1c0 5.4 2.6 8.1 7.9 8.1 2.8 0 4.8-.7 6-2.1 1.2-1.4 1.8-3.6 1.8-6.8V795h3.5zm9.2 0h7.6c6.5 0 9.7 2.2 9.7 6.7 0 3.8-1.8 6.1-5.5 6.9l-.5.1.5.1c1.9.5 3.2 1.1 3.8 1.8.6.7 1.4 2.6 2.2 5.5l1.1 3.6c.2.6.4 1.3.6 2h-3.7c-.2-.6-.4-1.2-.5-1.6l-1.2-4c-.6-2.2-1.5-3.8-2.6-4.6-1.1-.9-2.7-1.3-5-1.3h-3v11.5h-3.5V795zm3.5 3.3v8.8h3.8c4.2 0 6.3-1.5 6.3-4.4 0-2.9-2.3-4.4-6.8-4.4H643zm60.9 10.1c0 4.3-1.2 7.8-3.7 10.4-2.5 2.6-5.8 3.9-10 3.9-4 0-7.1-1.3-9.5-3.8-2.4-2.5-3.6-5.9-3.6-10.1 0-4.4 1.3-7.9 3.8-10.5 2.5-2.6 5.8-4 9.9-4 4 0 7.2 1.3 9.5 3.8 2.4 2.6 3.6 6 3.6 10.3zm-4 .2c0-7.4-3.1-11.1-9.3-11.1-3 0-5.3 1-7 2.9-1.7 2-2.5 4.7-2.5 8.1 0 3.5.8 6.2 2.4 8.1 1.6 1.9 3.9 2.9 6.9 2.9 3 0 5.4-1 7-2.9 1.7-1.9 2.5-4.6 2.5-8zm27.8-11.4-7.4 24.6h-4.5l-7.4-26.8h3.8l6 23.1 7.2-23.1h4.5l7.2 23.1 6-23.1h3.9l-7.4 26.8h-4.5l-7.4-24.6zm48.5-2.2v26.7h-4.6l-15.1-22v22H753V795h4.7l15.1 22v-22h3.4zm22.1 0h8.1c5.7 0 8.6 2.2 8.6 6.5 0 3.1-1.5 5.2-4.5 6.1l-.4.1.5.1c3.9.5 5.9 2.7 5.9 6.5 0 4.9-2.9 7.3-8.6 7.3h-9.6V795zm3.5 3.3v8.1h4.3c3.7 0 5.5-1.4 5.5-4.1 0-2.7-2-4-5.9-4h-3.9zm0 11.1v8.9h5.1c3.9 0 5.8-1.5 5.8-4.4 0-3-2.2-4.5-6.7-4.5h-4.2zm36.3-14.4v3.3h-11.2v7.9h11v3.3h-11v8.7h11.5v3.4h-15.1V795h14.8zm19.9-.1 10.2 26.8h-3.9l-2.6-7.1h-11.9l-2.6 7.1h-3.9l10.2-26.8h4.5zm2.6 16.7-4.8-14-4.9 14h9.7zm33.7-16.6v3.3h-9.5v23.4h-3.5v-23.4h-9.6V795h22.6z"/><path d="M705.9 398.4H539.5l-61.7-70.9h154.9zM512.6 595.1l-73.2-88.6h115z" style="fill:#5f5fff"/><path d="M741.4 327.5H477.8l57.1-108.1h263.7zM649 506.8H439.7l57.2-108.1h209.3z" style="fill:#40c9ff"/><path class="st4" d="M364.2 751.4h-30.9L314 711.6h-9v39.9h-28.5V643.3h45.2c26.9 0 36.4 14.5 36.4 30.9 0 16-7.2 25.1-17.5 30.5l23.6 46.7zm-52.3-60.5c8.5 0 16.7-2.5 16.7-14 0-7.8-4.3-12.1-14.5-12.1H305v26.1h6.9zm90.7 60.5h-28.7V643.3h28.7v108.1zm46.5 0h-28.7V643.3h71.2v22.4H449v23h39v21.9h-39v40.8zm83.2 0h-28.7V643.3h71.2v22.4h-42.6v23h39v21.9h-39v40.8zm83.2 0h-28.7V643.3h28.7v108.1zm79-108.1L733 751.4h-31.2l-7.9-23.3h-32.7l-7 23.3h-29.7l34.9-108.1h35.1zm-17.4 26.3h-.7l-11 36.7h22.8l-11.1-36.7zm125 81.8-34.9-69v69h-26V643.3h33.3l34.3 69.7v-69.7h25.7v108.1h-32.4z"/></svg>