<svg xmlns="http://www.w3.org/2000/svg" viewBox="0 0 1159 219.82"><path d="M155.91 104.73H58.55L22.42 63.24h90.66l42.83 41.49zM42.82 219.82L0 167.96h67.25l-24.43 51.86z" fill="#5f5fff"/><path d="m176.65,63.24H22.42L55.87,0h154.24l-33.46,63.24Zm-54.03,104.89H.17l33.45-63.24h122.46l-33.46,63.24Z" fill="#40c9ff"/><path d="M405 194.56h-49.55l-30.88-63.91h-14.36v63.91H264.5V21.26c45.28 1.68 134.07-14.37 130.93 49.55 0 25.61-11.49 40.21-28 48.83L405 194.56zm-83.77-96.94c13.64 0 26.81-4.07 26.81-22.5 0-12.45-6.94-19.39-23.22-19.39h-14.6v41.89h11.01zm145.29 96.94h-45.96V21.26h45.96v173.3zm74.69 0h-45.96V21.26h114.17v35.9H541.2v36.86h62.47v35.19H541.2v65.35h.01zm133.32 0h-45.96V21.26h114.17v35.9h-68.22v36.86H737v35.19h-62.47v65.35zm133.33 0H761.9V21.26h45.96v173.3zm126.62-173.3l61.75 173.29H946.2l-12.69-37.34H881.1l-11.25 37.34h-47.63l56.01-173.29h56.25zm-27.77 42.13h-1.2l-17.71 58.88h36.62l-17.71-58.88h0zm200.35 131.17l-56.01-110.58v110.58h-41.65V21.26h53.38l55.05 111.78V21.26H1159v173.29h-51.94z" fill="#161616"/></svg>