<svg xmlns="http://www.w3.org/2000/svg" baseProfile="tiny" viewBox="0 0 64 64"><g fill="none" stroke-width="2"><path stroke="#33c1dd" vector-effect="non-scaling-stroke" d="M50.24 36.22c-5.36 2.8-.92 7.99 1.06 11.28a1 1 0 0 1-.87 1.51q-6.45-.05-12.93.03c-3.52.04-6.32.95-6.11 4.94"/><path stroke="#55d7f1" vector-effect="non-scaling-stroke" d="M13.05 37.37q4.13 2.03 6.78-1.54 2.13-2.88 4.85-8.39"/><path stroke="#9be8f7" vector-effect="non-scaling-stroke" d="M24.68 27.44q3.22-3.53 4.62-7.8"/><path stroke="#55d7f1" vector-effect="non-scaling-stroke" d="M29.3 19.64q1.53-3.64-1.78-5.94"/><path stroke="#b9eff9" vector-effect="non-scaling-stroke" d="M29.3 19.64c-3.44-1.86-4.61 2.67-5.93 4.95q-.99 1.69 1.31 2.85"/></g><path fill="#37d0ee" d="M50.24 36.22c-5.36 2.8-.92 7.99 1.06 11.28a1 1 0 0 1-.87 1.51q-6.45-.05-12.93.03c-3.52.04-6.32.95-6.11 4.94q-9.82.06-19.78-.01c-4.6-.03-7.15-2.46-4.49-6.85q3.06-5.06 5.93-9.75 4.13 2.03 6.78-1.54 2.13-2.88 4.85-8.39 3.22-3.53 4.62-7.8 1.53-3.64-1.78-5.94c2.58-5.18 6.07-4.65 8.82-.18q7.02 11.38 13.9 22.7zm-32.85 9.32a.3.3 0 0 0 .25.46h28.72a.3.3 0 0 0 .25-.46l-14.35-23.5a.3.3 0 0 0-.52 0l-14.35 23.5z"/><path fill="#73def3" d="M27.52 13.7q3.31 2.3 1.78 5.94c-3.44-1.86-4.61 2.67-5.93 4.95q-.99 1.69 1.31 2.85-2.72 5.51-4.85 8.39-2.65 3.57-6.78 1.54L27.52 13.7z"/><path fill="#fff" d="M29.3 19.64q-1.4 4.27-4.62 7.8-2.3-1.16-1.31-2.85c1.32-2.28 2.49-6.81 5.93-4.95z"/><path fill="#2fb1cb" d="M50.24 36.22l7.33 11.98a2.73 2.68 29.4 0 1 .39 1.36q.09 4.18-4.21 4.26-11.09.2-22.36.16c-.21-3.99 2.59-4.9 6.11-4.94q6.48-.08 12.93-.03a1 1 0 0 0 .87-1.51c-1.98-3.29-6.42-8.48-1.06-11.28z"/><path fill-opacity=".298" d="M35.49 64h-6.86c-5.86-.27-13.43-.14-18.89-2.3a.77.77 0 0 1-.48-.81q.03-.29.39-.47 2.17-1.08 4.6-1.37 17.75-2.11 35.49.09 2.4.3 4.76 1.26a.63.63 0 0 1 .05 1.14c-4.66 2.38-13.8 2.28-19.06 2.46z"/></svg>