<svg width="422" height="335" viewBox="0 0 422 335" fill="none" xmlns="http://www.w3.org/2000/svg">
<path d="M54.5299 103.678C41.1748 138.606 46.7922 186.12 40.5761 209.225C33.5068 235.503 22.5405 302.226 88.8044 315.483C155.068 328.741 169.132 307.894 208.5 305.499C247.868 303.104 257.774 319.995 325 310.999C356.154 306.83 359.034 219.291 359.125 153.856C359.215 88.4214 428.821 41.7579 387.706 13.6818C346.591 -14.3942 321.921 22.566 282.467 29.1816C243.013 35.7972 186.02 10.2861 143.409 21.5828C100.799 32.8796 71.2237 60.0189 54.5299 103.678Z" fill="#D7BDEF"/>
<path d="M145.56 14.1173C74.606 26.28 84.1266 142.669 68.9469 216.442C63.5256 267.265 33.1664 339.156 89.982 334.812C124.145 332.2 148.379 265.626 193.485 267.146C238.59 268.666 271.354 292.555 349.185 281.481C427.035 270.404 385.4 188.74 385.4 150.731C385.4 112.722 428.336 50.6053 355.691 47.3475C283.045 44.0896 234.253 -1.08619 145.56 14.1173Z" fill="#9D8CCD"/>
<path d="M358.912 172.235C348.777 172.78 334.081 195.087 328 206.172V305.255C328 287.689 367.865 256.31 388.811 233.799C409.756 211.288 393.034 210.947 394.892 192.188C396.75 173.428 410.432 148.7 400.297 148.018C390.162 147.336 385.263 166.095 377.493 172.235C369.723 178.374 371.581 171.552 358.912 172.235Z" fill="#8261BE"/>
<path d="M349.168 227.502C337.501 236.08 324.861 267.613 320 282.307C320 284.236 322.747 283.294 333.736 264.095C347.472 240.097 394.615 212.864 383.423 213.545C372.23 214.226 358.495 227.502 362.225 221.204C365.956 214.907 394.615 182.228 383.423 179.164C372.23 176.101 363.751 216.779 349.168 227.502Z" fill="#7250B4"/>
<path d="M394.215 49.6094C382.332 56.0642 365.914 93.1304 359.19 110.857C353.628 148.143 345.841 220.955 359.19 213.913C375.877 205.111 394.215 139.096 394.215 129.744C394.215 120.392 384.863 125.71 387.613 120.942C390.364 116.174 409.068 41.5409 394.215 49.6094Z" fill="#C068C5"/>
<path d="M368.323 149.672C364.949 165.662 348.702 189.587 341 199.55C348.702 189.892 365.646 166.396 371.807 149.672C379.509 128.767 391.428 66.0531 388.127 64.7695C385.487 63.7426 373.824 120.943 368.323 149.672Z" fill="#822C90"/>
<path d="M89.6364 206.835C100.086 211.575 107.343 225.473 109.665 231.83V302C82.1619 276.635 30.0726 224.313 41.7415 217.944C56.3276 209.983 14.7463 181.285 22.3659 172.028C29.9855 162.771 9.30368 130 27.1554 130C45.0071 130 43.2655 157.587 51.7559 166.103C60.2464 174.62 69.6076 164.807 78.0981 177.212C86.5885 189.617 76.5742 200.911 89.6364 206.835Z" fill="#6F4FC8"/>
<path d="M66.6266 205.11C73.4263 216.022 99.8259 241.852 112.176 253.404C129.901 272.819 154.717 302.361 112.176 265.2C58.9987 218.75 30.8847 158.107 36.3331 156.079C41.7816 154.052 58.127 191.47 66.6266 205.11Z" fill="#5C39AF"/>
<path d="M75.4906 235.187C90.6899 241.291 103.733 275.501 108.355 291.843L103.211 304.849C96.829 303.009 76.7765 294.332 47.6225 274.339C11.18 249.347 19.9716 204.502 33.5028 205.661C47.0341 206.82 56.4915 227.558 75.4906 235.187Z" fill="#BE69C5"/>
<path d="M65.8585 253.164C72.4659 262.9 102.085 290.493 116.069 303.073C101.691 291.489 71.0758 266.415 63.6343 258.788C54.3323 249.255 37.533 226.205 40.1557 223.633C42.7784 221.06 57.5991 240.995 65.8585 253.164Z" fill="#822C90"/>
</svg>
