<svg width="161" height="161" viewBox="0 0 161 161" fill="none" xmlns="http://www.w3.org/2000/svg">
    <ellipse cx="80.7957" cy="80.3184" rx="56.0672" ry="55.387" transform="rotate(-39.5546 80.7957 80.3184)" fill="#FD7CA5"/>
    <path fill-rule="evenodd" clip-rule="evenodd" d="M129.189 107.723C132.892 100.477 135.089 92.2882 135.346 83.5759C136.255 52.7264 112.482 26.9958 82.2472 26.105C52.0126 25.2143 26.7658 49.5007 25.8569 80.3502C25.6612 86.9932 26.61 93.3989 28.5214 99.3703C20.3906 77.771 26.2658 52.4816 44.9652 36.8282C68.6308 17.0177 103.875 20.1428 123.686 43.8083C139.196 62.337 140.647 87.9634 129.189 107.723Z" fill="#FDD1DF"/>
    <path fill-rule="evenodd" clip-rule="evenodd" d="M62.4984 128.66C92.2241 138.863 124.375 123.67 134.309 94.7259C134.968 92.8044 135.513 90.8705 135.947 88.9314C133.824 101.613 127.338 113.628 116.706 122.529C93.04 142.34 57.7956 139.214 37.9851 115.549C32.0452 108.453 28.1673 100.316 26.2867 91.867C31.5283 108.424 44.5077 122.486 62.4984 128.66Z" fill="#FE1B62"/>
    <ellipse cx="80.4689" cy="80.4773" rx="39.9265" ry="40.9714" transform="rotate(3.2316 80.4689 80.4773)" fill="#FD3A77"/>
    <g filter="url(#filter0_d_8574_28674)">
        <path fill-rule="evenodd" clip-rule="evenodd" d="M62.6876 54.5626C60.994 55.5877 59.5294 56.7495 58.8657 58.7086V82.4455C59.4379 83.8806 60.1244 85.1791 61.5891 85.9308C63.4505 86.8853 65.2945 87.8658 67.1373 88.8455L67.1374 88.8456L67.1376 88.8457L67.1378 88.8458C68.2854 89.456 69.4325 90.0659 70.5829 90.6691C70.8805 90.8058 71.3839 90.9197 71.6128 90.783C73.4091 89.6964 75.1971 88.5931 77.0121 87.4733C78.203 86.7385 79.4055 85.9965 80.6295 85.2474C80.0329 84.9309 79.4409 84.6164 78.8527 84.3039L78.8438 84.2992C76.0062 82.7916 73.2566 81.3308 70.4914 79.9169C69.6904 79.5068 69.4387 79.0057 69.4616 78.14C69.5302 73.3106 69.576 68.504 69.5302 63.6747C69.5302 62.604 69.8277 61.9889 70.7889 61.4422C73.6219 59.7732 76.4366 58.068 79.2734 56.3493L79.2736 56.3492C80.9283 55.3466 82.5905 54.3396 84.2683 53.3325C84.1164 53.2418 83.9824 53.1555 83.8585 53.0757L83.8585 53.0757L83.8584 53.0757L83.8583 53.0756C83.7022 52.9751 83.5619 52.8847 83.4215 52.8085C81.1101 51.5784 78.7987 50.3483 76.4644 49.1182C74.5421 48.0703 72.6884 48.1614 70.8576 49.346C70.4696 49.5979 70.0817 49.8504 69.6936 50.103L69.6936 50.103C67.3798 51.6087 65.0589 53.119 62.6876 54.5626ZM82.3064 67.0474L81.1074 67.7869C81.699 68.101 82.2851 68.413 82.8673 68.7229L82.8674 68.723L82.8679 68.7233L82.8682 68.7234L82.8684 68.7236C85.6637 70.2116 88.3661 71.6502 91.1311 73.0263C91.9778 73.4592 92.3211 73.9375 92.2982 74.9171C92.2296 79.8148 92.2296 84.7125 92.2525 89.6103C92.2525 90.4759 92.0007 90.9543 91.2455 91.4099C88.2804 93.1577 85.3393 94.9413 82.3961 96.7262L82.3955 96.7265L82.3923 96.7285C81.2706 97.4087 80.1486 98.0892 79.0248 98.7679C78.5442 99.0412 78.0636 99.3374 77.4229 99.7474C78.0468 100.076 78.6636 100.402 79.2751 100.725L79.2753 100.725L79.2762 100.726L79.2766 100.726C81.7594 102.037 84.1534 103.302 86.5769 104.508C87.767 105.101 89.0485 104.827 90.1699 104.121C91.9434 102.982 93.7227 101.843 95.5019 100.704L95.5055 100.702C97.2837 99.5637 99.0619 98.4254 100.834 97.2872C102.162 96.4443 102.848 95.2142 102.848 93.6651C102.871 86.1477 102.871 78.6302 102.848 71.1128C102.848 69.5182 102.185 68.2197 100.743 67.4452C97.5389 65.7139 94.3121 64.0054 91.0624 62.3197C90.7878 62.183 90.2843 62.1602 90.0326 62.3197C87.4677 63.8634 84.9374 65.4244 82.3065 67.0473L82.3064 67.0474ZM78.4777 64.2895C78.9229 64.0188 79.3651 63.7497 79.8049 63.4821C82.3268 61.9471 84.7713 60.4593 87.2657 59.0045C87.586 58.8222 88.1582 58.9817 88.593 59.1184C88.9162 59.2149 89.2165 59.3795 89.5826 59.5802L89.5827 59.5803L89.5827 59.5803C89.7351 59.6638 89.8989 59.7536 90.0805 59.8473C89.9118 59.9569 89.7595 60.0571 89.6169 60.1509L89.6159 60.1516L89.6157 60.1517L89.6156 60.1518L89.6155 60.1518C89.3139 60.3502 89.0555 60.5202 88.7761 60.6902C88.1711 61.0553 87.5608 61.4115 86.9511 61.7672L86.9511 61.7672C85.3927 62.6765 83.8387 63.5832 82.3911 64.6312C80.8807 65.7018 79.7822 65.3374 78.4777 64.2895ZM86.4806 56.9597C87.0692 56.6016 87.6586 56.2429 88.2499 55.8842C88.2499 55.8159 88.2557 55.7476 88.2614 55.6792C88.2671 55.6109 88.2728 55.5425 88.2728 55.4742C88 55.4027 87.7047 55.2887 87.4101 55.1749C86.7658 54.9261 86.1252 54.6787 85.7326 54.8819C83.4594 56.0898 81.2756 57.4375 79.019 58.8301C78.2541 59.3022 77.4808 59.7794 76.6929 60.258C76.8831 60.3527 77.0546 60.445 77.2149 60.5313C77.556 60.7149 77.8462 60.8712 78.1576 60.9642C78.2059 60.9794 78.2561 60.9957 78.3077 61.0124C78.7209 61.1464 79.2204 61.3084 79.4849 61.1464C81.8411 59.7829 84.1535 58.3758 86.4804 56.9599L86.4806 56.9597ZM73.1002 92.2175C76.0753 90.3951 79.0275 88.5955 82.0025 86.8414C82.273 86.6844 82.832 86.8808 83.2205 87.0174L83.2383 87.0236C83.5794 87.1425 83.9078 87.3246 84.2993 87.5417C84.4331 87.6159 84.5743 87.6941 84.7259 87.7754C83.9277 88.2521 83.1755 88.7105 82.4343 89.1622L82.4324 89.1634C82.0054 89.4236 81.5821 89.6815 81.1558 89.9395C80.7805 90.1636 80.3984 90.3809 80.016 90.5984C78.9992 91.1767 77.9803 91.7562 77.0822 92.4681C75.6405 93.6071 74.4504 93.311 73.1002 92.2175ZM83.8681 93.4349C84.6914 92.9267 85.5239 92.4129 86.3737 91.8991C86.1921 91.8051 86.029 91.7134 85.8777 91.6283C85.5523 91.4455 85.2818 91.2934 85.0006 91.2157C84.9706 91.2047 84.9397 91.1932 84.9081 91.1815C84.482 91.0237 83.9274 90.8182 83.6504 90.9879C80.9895 92.5245 78.3828 94.1149 75.7661 95.7114C75.4346 95.9137 75.1029 96.116 74.7709 96.3184C74.7709 96.3754 74.7652 96.4323 74.7595 96.4893C74.7538 96.5462 74.748 96.6032 74.748 96.6601C75.0363 96.7263 75.3508 96.8424 75.6654 96.9586C76.3248 97.202 76.9844 97.4455 77.4027 97.2296C79.5926 96.0736 81.6983 94.774 83.8681 93.4349Z" fill="white"/>
    </g>
    <defs>
        <filter id="filter0_d_8574_28674" x="58.8657" y="48.3906" width="43.9998" height="58.4414" filterUnits="userSpaceOnUse" color-interpolation-filters="sRGB">
            <feFlood flood-opacity="0" result="BackgroundImageFix"/>
            <feColorMatrix in="SourceAlpha" type="matrix" values="0 0 0 0 0 0 0 0 0 0 0 0 0 0 0 0 0 0 127 0" result="hardAlpha"/>
            <feOffset dy="2"/>
            <feComposite in2="hardAlpha" operator="out"/>
            <feColorMatrix type="matrix" values="0 0 0 0 0.774237 0 0 0 0 0.0459476 0 0 0 0 0.273739 0 0 0 1 0"/>
            <feBlend mode="normal" in2="BackgroundImageFix" result="effect1_dropShadow_8574_28674"/>
            <feBlend mode="normal" in="SourceGraphic" in2="effect1_dropShadow_8574_28674" result="shape"/>
        </filter>
    </defs>
</svg>
